<svg xmlns="http://www.w3.org/2000/svg" viewBox="0 0 1800 1100" role="img" aria-labelledby="title desc">
  <title id="title">Placeholder fotka kaderníctva</title>
  <desc id="desc">Ilustračná fotografia salónu pripravená na nahradenie vlastnou fotkou.</desc>
  <defs>
    <linearGradient id="wall" x1="0" y1="0" x2="1" y2="1">
      <stop offset="0" stop-color="#f1ded2"/>
      <stop offset="0.55" stop-color="#c98f7f"/>
      <stop offset="1" stop-color="#6d2f33"/>
    </linearGradient>
    <linearGradient id="chair" x1="0" y1="0" x2="1" y2="1">
      <stop offset="0" stop-color="#2b2421"/>
      <stop offset="1" stop-color="#6c625d"/>
    </linearGradient>
  </defs>
  <rect width="1800" height="1100" fill="url(#wall)"/>
  <rect y="720" width="1800" height="380" fill="#211b18" opacity="0.78"/>
  <circle cx="1430" cy="210" r="190" fill="#f8eee6" opacity="0.28"/>
  <circle cx="1560" cy="330" r="130" fill="#c79a54" opacity="0.18"/>
  <rect x="180" y="170" width="430" height="560" rx="24" fill="#fffaf6" opacity="0.88"/>
  <rect x="230" y="220" width="330" height="450" rx="14" fill="#d9c7bd"/>
  <path d="M310 650 C370 520 455 490 520 650" fill="#6d2f33" opacity="0.35"/>
  <rect x="840" y="450" width="310" height="380" rx="42" fill="url(#chair)"/>
  <rect x="890" y="410" width="210" height="160" rx="36" fill="#332824"/>
  <rect x="780" y="810" width="430" height="58" rx="29" fill="#111"/>
  <rect x="975" y="858" width="40" height="160" fill="#111"/>
  <ellipse cx="995" cy="1028" rx="210" ry="34" fill="#000" opacity="0.32"/>
  <rect x="1210" y="540" width="340" height="38" rx="19" fill="#fffaf6" opacity="0.82"/>
  <rect x="1325" y="578" width="120" height="260" rx="14" fill="#f4ebe4" opacity="0.72"/>
  <path d="M1335 510 C1370 420 1430 430 1460 510" fill="none" stroke="#211b18" stroke-width="18" stroke-linecap="round"/>
  <text x="135" y="950" fill="#fffaf6" font-family="Georgia, serif" font-size="92" font-weight="700">Petra Kaderníčka</text>
</svg>
